<svg width="66" height="45" viewBox="0 0 66 45" fill="none" xmlns="http://www.w3.org/2000/svg">
<path d="M56.5417 9.47168H51.6253C49.815 9.47168 48.3477 10.9391 48.3477 12.7493V17.6657C48.3477 19.4759 49.815 20.9433 51.6253 20.9433H56.5417C58.3519 20.9433 59.8193 19.4759 59.8193 17.6657V12.7493C59.8193 10.9391 58.3519 9.47168 56.5417 9.47168Z" stroke="white" stroke-width="3.6" stroke-linecap="round" stroke-linejoin="round"/>
<path d="M38.5143 9.47168H33.5979C31.7877 9.47168 30.3203 10.9391 30.3203 12.7493V17.6657C30.3203 19.4759 31.7877 20.9433 33.5979 20.9433H38.5143C40.3245 20.9433 41.792 19.4759 41.792 17.6657V12.7493C41.792 10.9391 40.3245 9.47168 38.5143 9.47168Z" stroke="white" stroke-width="3.6" stroke-linecap="round" stroke-linejoin="round"/>
<path d="M56.5417 27.499H51.6253C49.815 27.499 48.3477 28.9664 48.3477 30.7766V35.6931C48.3477 37.5033 49.815 38.9707 51.6253 38.9707H56.5417C58.3519 38.9707 59.8193 37.5033 59.8193 35.6931V30.7766C59.8193 28.9664 58.3519 27.499 56.5417 27.499Z" stroke="white" stroke-width="3.6" stroke-linecap="round" stroke-linejoin="round"/>
<path d="M38.5143 27.499H33.5979C31.7877 27.499 30.3203 28.9664 30.3203 30.7766V35.6931C30.3203 37.5033 31.7877 38.9707 33.5979 38.9707H38.5143C40.3245 38.9707 41.792 37.5033 41.792 35.6931V30.7766C41.792 28.9664 40.3245 27.499 38.5143 27.499Z" stroke="white" stroke-width="3.6" stroke-linecap="round" stroke-linejoin="round"/>
<path d="M14.25 5.5H23.75" stroke="white" stroke-width="2" stroke-linecap="round" stroke-linejoin="round"/>
<path d="M19 1.125V9.875" stroke="white" stroke-width="2" stroke-linecap="round" stroke-linejoin="round"/>
</svg>
