<svg width="36" height="36" viewBox="0 0 36 36" fill="none" xmlns="http://www.w3.org/2000/svg">
<path d="M13.125 18.25H21.675C22.0787 18.25 22.4174 18.1132 22.691 17.8396C22.9637 17.5669 23.1 17.2287 23.1 16.825C23.1 16.4212 22.9637 16.0826 22.691 15.809C22.4174 15.5363 22.0787 15.4 21.675 15.4H13.125C12.7212 15.4 12.383 15.5363 12.1104 15.809C11.8368 16.0826 11.7 16.4212 11.7 16.825C11.7 17.2287 11.8368 17.5669 12.1104 17.8396C12.383 18.1132 12.7212 18.25 13.125 18.25ZM13.125 12.55H21.675C22.0787 12.55 22.4174 12.4137 22.691 12.141C22.9637 11.8674 23.1 11.5287 23.1 11.125C23.1 10.7212 22.9637 10.3826 22.691 10.109C22.4174 9.83633 22.0787 9.7 21.675 9.7H13.125C12.7212 9.7 12.383 9.83633 12.1104 10.109C11.8368 10.3826 11.7 10.7212 11.7 11.125C11.7 11.5287 11.8368 11.8674 12.1104 12.141C12.383 12.4137 12.7212 12.55 13.125 12.55ZM28.7288 30.3269L22.9575 22.81C22.5537 22.2637 22.055 21.8419 21.4613 21.5446C20.8675 21.2482 20.2262 21.1 19.5375 21.1H6V6.85C6 6.06625 6.2793 5.39507 6.8379 4.83647C7.39555 4.27882 8.06625 4 8.85 4H25.95C26.7337 4 27.4049 4.27882 27.9635 4.83647C28.5212 5.39507 28.8 6.06625 28.8 6.85V29.65C28.8 29.7687 28.7943 29.8818 28.7829 29.9892C28.7706 30.0956 28.7525 30.2081 28.7288 30.3269ZM8.85 32.5C8.06625 32.5 7.39555 32.2212 6.8379 31.6635C6.2793 31.1049 6 30.4337 6 29.65V23.95H19.5375C19.775 23.95 19.9949 24.0037 20.1973 24.111C20.3987 24.2174 20.5706 24.3656 20.7131 24.5556L26.6981 32.3931C26.5794 32.4406 26.4549 32.4706 26.3248 32.4829C26.1937 32.4943 26.0687 32.5 25.95 32.5H8.85Z" fill="white"/>
</svg>
